<?xml version="1.0" standalone="no"?>
<!DOCTYPE svg PUBLIC "-//W3C//DTD SVG 20010904//EN"
 "http://www.w3.org/TR/2001/REC-SVG-20010904/DTD/svg10.dtd">
<svg version="1.0" xmlns="http://www.w3.org/2000/svg"
 width="1898.000000pt" height="2367.000000pt" viewBox="0 0 1898.000000 2367.000000"
 preserveAspectRatio="xMidYMid meet">

<g transform="translate(0.000000,2367.000000) scale(0.100000,-0.100000)"
fill="#000000" stroke="none">
<path d="M16589 23656 c-2 -2 -1178 -6 -2614 -10 -5151 -12 -10233 -26 -12073
-32 l-1873 -6 2 -9889 c1 -7277 -2 -9893 -10 -9903 -17 -20 1112 -25 7254 -32
2959 -3 5398 -7 5420 -9 22 -2 1429 -4 3126 -5 2356 -2 3092 1 3109 10 12 6
28 27 36 45 12 30 14 1413 14 9883 0 7074 -3 9858 -11 9880 -6 17 -26 41 -44
52 -32 20 -45 20 -1182 20 -632 0 -1152 -2 -1154 -4z m798 -1609 c17 -17 18
-365 18 -8358 0 -8245 0 -8341 -19 -8355 -17 -12 -1108 -14 -7883 -14 -7850 0
-7863 0 -7883 20 -20 20 -20 33 -20 8346 0 5872 3 8331 11 8345 6 11 20 24 32
29 13 5 3363 8 7874 7 7523 -2 7853 -3 7870 -20z"/>
<path d="M9265 18444 c-185 -20 -442 -97 -617 -185 -392 -197 -661 -555 -759
-1008 -26 -123 -37 -415 -20 -546 44 -331 183 -643 405 -909 95 -113 95 -118
-41 -258 -210 -215 -446 -415 -693 -588 -184 -128 -201 -135 -330 -135 -98 0
-110 2 -170 32 -129 63 -508 408 -725 658 -63 73 -122 149 -130 168 -10 25
-15 72 -15 154 0 828 -472 1454 -1213 1607 -244 51 -562 33 -800 -45 -537
-175 -889 -593 -973 -1154 -20 -133 -15 -453 9 -580 67 -355 231 -642 485
-846 137 -110 318 -215 480 -275 91 -35 133 -58 163 -91 53 -57 -2 152 603
-2288 146 -588 273 -1084 282 -1102 9 -17 24 -35 33 -39 9 -4 117 -10 241 -15
124 -4 349 -18 500 -31 l275 -23 3155 0 c2945 0 3173 1 3425 18 472 32 743 55
762 65 47 26 20 -55 535 1597 134 433 193 621 298 955 27 85 86 274 131 420
48 155 91 277 104 295 16 20 73 55 179 108 636 318 948 658 1056 1154 41 188
45 515 9 733 -84 506 -369 885 -830 1104 -587 279 -1161 251 -1658 -80 -578
-385 -824 -1018 -676 -1738 23 -111 64 -247 124 -408 25 -67 18 -99 -26 -116
-15 -6 -127 -28 -248 -47 -121 -20 -355 -61 -520 -90 -165 -30 -323 -57 -351
-60 -77 -11 -184 11 -272 56 -68 33 -99 60 -257 219 -188 189 -373 356 -535
480 -52 40 -101 80 -107 88 -25 31 -13 60 61 149 199 239 329 505 382 783 24
129 24 388 0 520 -38 209 -134 440 -259 624 -86 128 -284 324 -412 409 -111
73 -269 151 -385 190 -149 51 -262 68 -455 72 -99 1 -198 1 -220 -1z m345
-1149 c62 -24 87 -41 146 -99 77 -76 106 -135 125 -246 29 -174 -75 -371 -241
-455 -142 -72 -315 -74 -451 -4 -52 26 -143 112 -172 162 -61 106 -78 248 -42
358 34 103 129 215 224 264 123 62 278 70 411 20z m4935 -871 c266 -131 369
-446 228 -700 -70 -126 -218 -230 -366 -255 -240 -40 -490 120 -561 361 -19
65 -21 197 -2 265 45 169 185 313 351 361 34 9 86 13 160 11 105 -3 114 -5
190 -43z m-9740 -95 c260 -108 322 -447 118 -640 -29 -27 -79 -62 -110 -77
-51 -24 -70 -27 -158 -27 -91 0 -106 3 -165 31 -244 117 -302 436 -114 627 78
79 162 115 277 116 66 1 90 -4 152 -30z m4847 -1769 c80 -24 122 -54 268 -189
448 -413 737 -639 958 -750 574 -286 1216 -240 1973 140 65 32 123 59 129 59
19 0 10 -44 -56 -280 -160 -575 -318 -1053 -378 -1145 l-15 -23 -973 -7 c-535
-4 -1724 -5 -2643 -3 -1604 4 -1681 5 -1935 26 -146 12 -342 26 -436 31 -176
10 -211 18 -233 53 -7 11 -37 128 -67 261 -224 983 -235 1037 -232 1060 6 40
35 28 124 -50 153 -135 288 -210 476 -267 202 -61 284 -71 558 -71 277 0 405
17 620 81 284 86 530 239 970 606 247 206 516 412 577 443 98 49 210 58 315
25z"/>
<path d="M5975 10210 c-189 -48 -311 -135 -373 -268 l-27 -57 0 -375 0 -375
26 -55 c34 -71 89 -126 158 -159 l56 -26 3650 -3 c3325 -2 3654 -1 3705 14 91
26 159 87 202 180 23 48 23 55 23 424 l0 375 -27 57 c-32 69 -96 140 -166 185
-61 39 -106 57 -212 84 -73 18 -187 18 -3510 17 -3248 0 -3439 -1 -3505 -18z"/>
<path d="M1105 2508 c-320 -20 -565 -119 -756 -308 -137 -135 -213 -260 -273
-446 -92 -289 -90 -718 6 -998 89 -260 319 -535 529 -630 241 -110 721 -148
1014 -80 273 62 477 221 623 485 49 88 122 292 110 305 -3 2 -78 26 -169 53
-90 27 -232 70 -315 95 -83 25 -156 46 -161 46 -5 0 -15 -26 -22 -57 -31 -143
-144 -314 -238 -358 -104 -49 -271 -60 -385 -25 -163 50 -252 164 -289 370
-45 259 -24 574 52 745 27 62 137 173 199 203 185 88 389 60 523 -72 43 -42
106 -144 133 -214 2 -4 643 134 649 139 7 8 -33 106 -82 202 -81 157 -181 276
-305 363 -205 145 -482 205 -843 182z"/>
<path d="M2687 2473 c-4 -3 -7 -550 -7 -1215 l0 -1208 339 0 340 0 3 523 3
522 24 60 c44 109 120 160 241 160 83 0 119 -14 166 -64 59 -63 58 -56 62
-653 l3 -548 340 0 340 0 -3 643 c-4 625 -5 644 -26 722 -32 115 -74 195 -140
262 -127 132 -289 182 -516 162 -171 -16 -292 -71 -422 -192 l-74 -69 -2 449
-3 448 -331 3 c-182 1 -333 -1 -337 -5z"/>
<path d="M12520 1265 l0 -1215 1015 0 1015 0 0 275 0 275 -645 0 -645 0 2 238
3 237 578 3 577 2 0 245 0 245 -580 0 -580 0 2 193 3 192 623 3 622 2 -2 258
-3 257 -992 3 -993 2 0 -1215z"/>
<path d="M15977 2473 c-4 -3 -7 -369 -7 -812 0 -880 -1 -900 -57 -990 -36 -57
-88 -84 -171 -89 -87 -6 -135 12 -183 66 -46 53 -67 115 -76 229 -5 75 -8 83
-27 83 -21 0 -653 -88 -671 -93 -21 -7 14 -233 52 -327 56 -140 136 -258 227
-332 130 -108 289 -166 510 -187 427 -42 734 51 941 283 100 111 151 235 182
443 16 105 18 204 18 923 l0 805 -366 3 c-201 1 -368 -1 -372 -5z"/>
<path d="M18235 2468 c-3 -7 -6 -386 -8 -843 -3 -909 0 -876 -62 -965 -34 -49
-84 -73 -164 -78 -85 -6 -134 11 -181 65 -49 56 -69 115 -77 226 -5 78 -8 87
-26 87 -28 0 -670 -91 -678 -96 -9 -5 -1 -80 18 -178 39 -203 145 -386 287
-495 127 -97 278 -150 490 -170 363 -36 620 21 833 183 132 100 217 228 258
390 49 194 55 312 55 1131 l0 755 -370 0 c-287 0 -372 -3 -375 -12z"/>
<path d="M5727 1839 c-371 -30 -656 -220 -790 -524 -76 -173 -95 -399 -52
-621 52 -270 253 -514 505 -612 250 -98 775 -91 1031 13 145 58 285 181 398
348 18 27 31 50 29 52 -1 1 -142 17 -313 34 -170 18 -316 34 -324 37 -8 3 -38
-21 -70 -54 -72 -75 -137 -102 -250 -102 -136 0 -231 48 -293 148 -19 31 -58
158 -58 189 0 11 124 13 681 13 l681 0 -6 118 c-14 240 -50 393 -128 534 -144
262 -385 399 -738 423 -176 12 -207 12 -303 4z m268 -410 c92 -28 142 -79 178
-179 14 -41 29 -96 32 -122 l6 -48 -332 0 -332 0 6 50 c19 161 103 270 237
306 67 19 130 16 205 -7z"/>
<path d="M7910 1843 c-292 -12 -468 -72 -606 -208 -79 -78 -107 -125 -129
-217 -41 -175 2 -325 130 -453 119 -119 171 -139 605 -225 346 -68 379 -80
416 -152 27 -51 18 -87 -31 -134 -54 -53 -119 -74 -225 -74 -146 0 -234 46
-294 152 l-35 64 -330 -30 -330 -30 5 -25 c3 -14 26 -67 50 -117 91 -186 251
-300 489 -348 244 -48 562 -47 800 4 381 82 597 409 489 738 -25 77 -52 117
-116 178 -134 125 -256 165 -723 238 -256 40 -315 67 -315 146 0 86 78 139
207 140 131 0 220 -40 260 -119 12 -24 24 -45 26 -47 5 -5 618 54 624 59 7 8
-52 132 -87 181 -71 104 -180 186 -302 227 -106 36 -376 60 -578 52z"/>
<path d="M9980 1843 c-108 -4 -247 -23 -323 -44 -210 -59 -380 -217 -416 -387
-23 -112 -11 -221 36 -321 34 -72 148 -186 228 -228 68 -36 224 -75 500 -128
261 -49 328 -70 365 -111 56 -64 47 -136 -22 -187 -59 -43 -96 -52 -213 -52
-94 0 -117 3 -163 24 -59 27 -101 69 -136 139 l-24 48 -304 -28 c-167 -15
-314 -29 -328 -30 -34 -4 -30 -30 25 -144 89 -184 252 -300 490 -348 244 -48
562 -47 800 4 202 44 378 168 454 320 51 102 65 171 58 285 -8 131 -51 228
-138 311 -129 121 -271 169 -674 229 -196 29 -301 56 -340 87 -21 16 -25 28
-25 68 0 65 32 104 103 125 151 45 322 -7 369 -111 10 -24 20 -44 21 -44 33 0
621 61 624 64 11 11 -80 176 -125 228 -108 125 -233 187 -431 213 -110 14
-298 22 -411 18z"/>
</g>
</svg>
